<svg xmlns="http://www.w3.org/2000/svg" xmlns:xlink="http://www.w3.org/1999/xlink" viewBox="0 0 500 500"><defs><style>.cls-1{fill:#f19183;}.cls-2,.cls-4{fill:#fff;}.cls-3{fill:#a1bef7;}.cls-23,.cls-4{stroke:#fff;stroke-miterlimit:10;}.cls-5{fill:#e0ebfc;}.cls-6{fill:#1e2a5d;}.cls-7{fill:#e8e3d9;}.cls-17,.cls-18,.cls-19,.cls-20,.cls-23,.cls-24,.cls-8{fill:none;stroke-width:0.75px;}.cls-8{stroke:#d8d6d2;}.cls-17,.cls-18,.cls-19,.cls-20,.cls-24,.cls-8{stroke-linecap:round;stroke-linejoin:round;}.cls-9{fill:#ff4468;}.cls-10{fill:#4c529d;}.cls-11{clip-path:url(#clip-path);}.cls-12{fill:#ea6254;}.cls-13{fill:#222221;}.cls-14{fill:#222624;}.cls-15{fill:#cce0ff;}.cls-16{fill:#279ae0;}.cls-17{stroke:#8caef4;}.cls-18{stroke:#bed4f4;}.cls-19{stroke:#ea6254;}.cls-20{stroke:#1e2a5d;}.cls-21{clip-path:url(#clip-path-2);}.cls-22{fill:#bed4f4;}.cls-24{stroke:#353d7c;}</style><clipPath id="clip-path"><path class="cls-1" d="M212.06,173.11h0a10.09,10.09,0,0,1-11.94-7.8l-8.34-39.75,25.38-5.33,7.16,34.12A15.85,15.85,0,0,1,212.06,173.11Z"/></clipPath><clipPath id="clip-path-2"><path class="cls-1" d="M336.5,106.15h0a10.79,10.79,0,0,1-12.77-8.34l-8.91-42.49,27.12-5.69,7.65,36.46A16.94,16.94,0,0,1,336.5,106.15Z"/></clipPath></defs><g id="BACKGROUND"><rect class="cls-2" width="500" height="500"/><path class="cls-2" d="M299.73,313.29s6-69.48-39-104C222,179.56,183.22,194,171,207s1.15,28.81,34.82,26.56S290.57,254.58,299.73,313.29Z"/></g><g id="OBJECTS"><path class="cls-3" d="M173.85,444.12C73.46,440.68,2.29,345.52,39.76,262.53q.63-1.39,1.29-2.79C76.65,185.33,182,167.57,220.23,101.59S383.31,8.45,459.8,189.34C518.08,327.16,323.61,449.25,173.85,444.12Z"/><path class="cls-4" d="M117.75,219.83S56.44,253.08,52.41,309.7c-3.47,48.69,29.88,73.09,47.49,76.07s23.41-16.82,3-43.68S73.77,259.8,117.75,219.83Z"/><rect class="cls-5" x="343.06" y="265.54" width="43.32" height="43.32" transform="translate(651.92 -77.52) rotate(90)"/><path class="cls-6" d="M297,315.18l-209.21,0c-7.09,0-15.51,5.9-18.72,13.11l-.15.34c-3.21,7.21,0,13.11,7.06,13.12l209.2,0c7.09,0,15.51-5.9,18.72-13.11l.15-.34C307.22,321.09,304.05,315.19,297,315.18Z"/><path class="cls-6" d="M75.61,337.28H87.75a0,0,0,0,1,0,0V451.05a6.07,6.07,0,0,1-6.07,6.07h0a6.07,6.07,0,0,1-6.07-6.07V337.28A0,0,0,0,1,75.61,337.28Z"/><path class="cls-6" d="M268.11,337.28h12.14a0,0,0,0,1,0,0V451.05a6.07,6.07,0,0,1-6.07,6.07h0a6.07,6.07,0,0,1-6.07-6.07V337.28A0,0,0,0,1,268.11,337.28Z"/><path class="cls-6" d="M99.39,447.71h0a6.08,6.08,0,0,1-6.08-6.08V327.86h12.15V441.63A6.08,6.08,0,0,1,99.39,447.71Z"/><path class="cls-6" d="M291.89,447.71h0a6.07,6.07,0,0,1-6.07-6.08V327.86H298V441.63A6.08,6.08,0,0,1,291.89,447.71Z"/><path class="cls-7" d="M303,293.57l-212.68,0c-11,0-24.06,8.78-29,19.51h0c-5,10.73,0,19.52,10.94,19.52l212.68,0c11,0,24.06-8.78,29-19.51h0C318.92,302.35,314,293.57,303,293.57Z"/><path class="cls-8" d="M64.8,320.31h215a30,30,0,0,0,21.12-8.53l.22-.21"/><path class="cls-1" d="M185.34,418.68l4.55,20.47s-10.65,12.64-13.26,21.38a3.67,3.67,0,0,0,5.28,4.25c8.45-4.53,25.61-14.46,28.45-21.84l-10.31-35.18Z"/><path class="cls-6" d="M185.76,442.71a13.22,13.22,0,0,1,9.7,4.14c8.13-2.14,13.52-8.63,13.52-8.63s2.77,3.92,1.38,6.92-27.21,25.67-33.89,20.61S185.76,442.71,185.76,442.71Z"/><path class="cls-6" d="M301.82,76.71s-7.94-8-4.4-22.41,15-23.06,34.35-20.26S358.7,73.69,340,81.88,301.82,76.71,301.82,76.71Z"/><path class="cls-1" d="M130.85,418.68l4.55,20.47s-10.65,12.64-13.26,21.38a3.67,3.67,0,0,0,5.28,4.25c8.45-4.53,25.61-14.46,28.45-21.84l-10.31-35.18Z"/><path class="cls-9" d="M210.31,148s-24.74,17.53-32,32,6.2,90.2,6.2,90.2,14,21.27,63.17,10.13C259.45,182.76,288.93,161.79,210.31,148Z"/><path class="cls-10" d="M190.35,265.54s-54.74,18.6-77.73,48.72c-7.56,9.91-10.41,16.32-8.06,28.57,6.29,32.69,21.82,88.46,21.82,88.46s17.3,2.29,29.49-9l-14-80.95s40.59-12.89,63.13-19.72,11.17-50.79,11.17-50.79Z"/><path class="cls-10" d="M199.55,273.74S172.26,285,153.9,318.18a43.89,43.89,0,0,0-2.91,35.7c11,31.44,29.66,77.61,29.66,77.61a34.49,34.49,0,0,0,27.83-11.89l-21.74-78.85s46.47-17.57,59.59-28.67C270.67,291.47,250,260.2,250,260.2Z"/><path class="cls-1" d="M186.22,161s-25.63,14.82-25.63,52.46c0,37.14-.42,47,17.44,52s36.83,9.84,36.83,9.84l7.44-13.63-39.54-17Z"/><path class="cls-9" d="M145.34,221.1,185.12,223V159.85S140.17,165.72,145.34,221.1Z"/><path class="cls-7" d="M197.37,95.87s-31.64-4.31-31.64,50.86l1,36.63H187s10.71-5.72,20-32.37C225.32,151,238.78,95.87,197.37,95.87Z"/><path class="cls-1" d="M256,168.18s-11.38-12.83-20.94-3.27c-16.87,16.87,7.59,50.24,11.64,70.17l-30.26,49.28,7.7,9.26s40.57-38,46.2-53C274.15,230.47,264.24,195.85,256,168.18Z"/><path class="cls-2" d="M229.49,185.57s0-26.28,26.54-17.39c-2.11-8.61-18.12-13.53-25.33-1C226.28,174.89,229.49,185.57,229.49,185.57Z"/><path class="cls-1" d="M212.06,173.11h0a10.09,10.09,0,0,1-11.94-7.8l-8.34-39.75,25.38-5.33,7.16,34.12A15.85,15.85,0,0,1,212.06,173.11Z"/><g class="cls-11"><path class="cls-12" d="M219.65,127s1.21,34-29.82,34c-8-32.74-8.29-47.77-8.29-47.77l36-6.72Z"/></g><ellipse class="cls-1" cx="197.37" cy="126.6" rx="23.64" ry="26.15"/><path class="cls-1" d="M329.59,417.49l-2,20.87s-14,8.72-19.23,16.22a3.68,3.68,0,0,0,3.71,5.68c9.43-1.69,28.83-5.82,33.81-12L347,411.65Z"/><path class="cls-10" d="M322.3,441.15s2.89-6.82,7.81-3.5c4.45,3,9.64,2.48,15.14.43a1.46,1.46,0,0,1,1.95,1.18c1.18,9,1.39,11.05-13,16.7-15.31,6-27.47,7.74-28.46,3.07S305,451.6,322.3,441.15Z"/><path class="cls-1" d="M416.51,417.49l2,20.87s14,8.72,19.23,16.22a3.68,3.68,0,0,1-3.71,5.68c-9.43-1.69-28.83-5.82-33.81-12l-1.08-36.65Z"/><path class="cls-2" d="M297.42,154s-11.69-9.47-17.13-12.82-15.8-6.67-17.57-5.73,7.95,5.93,8.37,7.12-10.43,2.31-8.66,7.4a7.17,7.17,0,0,0,1.4,4A4.53,4.53,0,0,0,266,157.3s-.22,2.5,2.71,2.15,10-2.81,10-2.81l8.14,8.3S293.17,162.75,297.42,154Z"/><path class="cls-2" d="M262.25,149s-7.75-.92-3.62-2.36c2.38-.83,11.07-3.23,11.07-3.23l-2.59,5.35Z"/><polygon class="cls-13" points="254 163.39 253.82 163.28 246.08 176.35 246.08 176.35 245.92 177.04 254 163.39"/><rect class="cls-14" x="251.97" y="164.05" width="1.88" height="1.88" transform="translate(-17.93 298.53) rotate(-59.36)"/><rect class="cls-15" x="262.76" y="141.33" width="6.19" height="3.62" transform="translate(7.22 298.95) rotate(-59.37)"/><path class="cls-5" d="M269.94,141.3l-4.43-2.62a.38.38,0,0,0-.52.13h0a.36.36,0,0,0,.13.51l4.43,2.63a.39.39,0,0,0,.52-.13h0A.38.38,0,0,0,269.94,141.3Z"/><path class="cls-5" d="M267.59,146l-5.1-3a.36.36,0,0,0-.51.13h0a.36.36,0,0,0,.13.51l5.1,3a.36.36,0,0,0,.51-.13h0A.36.36,0,0,0,267.59,146Z"/><path class="cls-16" d="M251.21,164l3.41,2a1,1,0,0,0,1.33-.34l5.67-9.58-5.08-3-5.67,9.58A1,1,0,0,0,251.21,164Z"/><rect class="cls-5" x="256.31" y="146.76" width="11.32" height="5.9" transform="translate(-0.34 298.83) rotate(-59.37)"/><path class="cls-2" d="M259.72,145.72c-2.07.73-2.29,1.71-2.29,1.71l1.94.38C260.77,147.13,261.8,145,259.72,145.72Z"/><path class="cls-10" d="M423.8,441.15s-2.89-6.82-7.8-3.5c-4.46,3-9.65,2.48-15.15.43a1.46,1.46,0,0,0-2,1.18c-1.18,9-1.39,11.05,13,16.7,15.31,6,27.48,7.74,28.46,3.07S441.13,451.6,423.8,441.15Z"/><path class="cls-15" d="M291.52,146.55l33.12,13.76c5.54-2.47-4.59-41.81,2.95-61.45,6.91-18,37.75,31.3,28.74,80.13a20.8,20.8,0,0,1-25,16.56C308.73,190.3,282,167,282,167Z"/><path class="cls-5" d="M327.68,87.48s-26,17.48-23.91,65.27c1.89,43-12.61,147.67-12.61,147.67A112.9,112.9,0,0,0,333,308.77C329.05,208.56,327.68,87.48,327.68,87.48Z"/><line class="cls-17" x1="288.19" y1="171.31" x2="296.76" y2="149.74"/><path class="cls-15" d="M324.32,212.26S320,295,320,342.83V431s13.06,9,37.91,0l7.58-165.5L389,431s21.67,9.09,37.92-3c-5.31-118.27-2.9-194.66-34.43-240C366.22,218.58,324.32,212.26,324.32,212.26Z"/><path class="cls-2" d="M327.69,85.66a40.72,40.72,0,0,1-5.5,6.64c-8.14,8.15-12.69,26.58-12.6,56.77L315,272.67S371.56,289.12,416.89,258C406.21,160.23,407.39,81.2,327.69,85.66Z"/><path class="cls-18" d="M315.78,266.58s50.76,14.8,95.79-10.82"/><path class="cls-18" d="M333.94,104.75s-4.72,10.5-4.72,38.7"/><path class="cls-18" d="M328,110.73a2.18,2.18,0,1,0-2.18,2.18A2.19,2.19,0,0,0,328,110.73Z"/><circle class="cls-18" cx="323.64" cy="129.12" r="2.18"/><path class="cls-19" d="M185.15,126.81s-6.05,12.89,0,12.89"/><path class="cls-7" d="M176.08,122.93a17.68,17.68,0,0,1,6.34-1.27,1.07,1.07,0,0,0,.58-2,5.83,5.83,0,0,0-8.23,1.65A1.07,1.07,0,0,0,176.08,122.93Z"/><path class="cls-7" d="M190.3,122.47a17.68,17.68,0,0,1,6.26,1.6,1.07,1.07,0,0,0,1.37-1.51,5.83,5.83,0,0,0-8.13-2.07A1.07,1.07,0,0,0,190.3,122.47Z"/><path class="cls-20" d="M174.92,127.48s2.35-2.44,7.44-1.22"/><path class="cls-6" d="M182.55,129.12a1.94,1.94,0,1,0-1.94,1.94A1.93,1.93,0,0,0,182.55,129.12Z"/><path class="cls-20" d="M197.4,127.48s-2.34-2.44-7.43-1.22"/><circle class="cls-6" cx="194.5" cy="129.12" r="1.93"/><path class="cls-1" d="M336.5,106.15h0a10.79,10.79,0,0,1-12.77-8.34l-8.91-42.49,27.12-5.69,7.65,36.46A16.94,16.94,0,0,1,336.5,106.15Z"/><g class="cls-21"><path class="cls-12" d="M345.7,66.36s1.21,34-29.82,34c-8-32.74-8.3-47.78-8.3-47.78l36-6.71Z"/></g><ellipse class="cls-1" cx="322.86" cy="66.63" rx="23.64" ry="26.15"/><path class="cls-19" d="M312,68.23s-5.27,13.23.79,12.86"/><path class="cls-6" d="M302.27,64.9a17.58,17.58,0,0,1,6.25-1.64,1.07,1.07,0,0,0,.46-2,5.83,5.83,0,0,0-8.12,2.14A1.07,1.07,0,0,0,302.27,64.9Z"/><path class="cls-6" d="M316.86,63.57a17.68,17.68,0,0,1,6.35,1.22,1.07,1.07,0,0,0,1.28-1.59,5.84,5.84,0,0,0-8.25-1.58A1.07,1.07,0,0,0,316.86,63.57Z"/><path class="cls-20" d="M301.82,69.51s1.59-2.44,6.75-1.53"/><path class="cls-6" d="M306.31,71.11a1.93,1.93,0,1,0-1.82,2A1.93,1.93,0,0,0,306.31,71.11Z"/><path class="cls-20" d="M324.93,68.84s-3-2.52-8-1"/><path class="cls-6" d="M320.75,70.5a1.93,1.93,0,1,0-1.81,2A1.94,1.94,0,0,0,320.75,70.5Z"/><path class="cls-5" d="M348.91,82.85S348,164,387.44,308.77c37.15-6.84,52.31-22,52.31-22s-35.93-149.35-45.63-176.64S348.91,82.85,348.91,82.85Z"/><path class="cls-22" d="M348.17,80.55,359.41,84s-.52,75.13,3,115.84C343.3,115.82,348.17,80.55,348.17,80.55Z"/><path class="cls-2" d="M295.88,173.15l-12.58-.39s-14.7-5.35-16.13-3.76,7.26,5.27,8.36,7.53-21,2.7-20.12,4.48,13.69,1.22,13.69,1.22-15.38.45-14.64,2,14.13,1.51,14.13,1.51-12.71,1.41-12.11,2.65,11.83.68,11.83.68-9.23,2-8.72,3,37.53-3.84,37.53-3.84Z"/><path class="cls-15" d="M291.16,163.81h44.73c6.07,0,14.7-48.49,29.57-63.36s47.32,6.5,17,63.36c-14.69,27.52-14.56,37.73-91.29,30.53Z"/><path class="cls-1" d="M225.25,271.36l-10.54,12.06s-12.9,8-12.53,10,8.37-2.37,10.76-1.85-10.51,17.58-8.63,18,9.13-9.69,9.13-9.69-8.87,12-7.27,12.32,9.61-9.85,9.61-9.85-6.53,10.52-5.22,10.8,7.6-8.6,7.6-8.6-4,8.22-2.9,8.46,19.55-30.86,19.55-30.86Z"/><path class="cls-1" d="M219.12,261.08l14.85,6s15.11,1.29,15.71,3.27-8.54,1.67-10.44,3.21,17.32,10.94,15.83,12.15-12.52-4.52-12.52-4.52,13.32,6.68,12,7.71-13-4.44-13-4.44,10.58,6.43,9.54,7.27-10.66-4.23-10.66-4.23,7.29,5.52,6.41,6.23S215.48,275,215.48,275Z"/><path class="cls-7" d="M182.45,102.78s.65,26.71,39.43,26.71C221.88,107.09,209.39,91.79,182.45,102.78Z"/><path class="cls-6" d="M309.5,39.91s.65,26.72,39.43,26.72C348.93,44.22,336.44,28.92,309.5,39.91Z"/><path class="cls-6" d="M131.27,442.71a13.23,13.23,0,0,1,9.7,4.14c8.13-2.14,13.52-8.63,13.52-8.63s2.77,3.92,1.38,6.92S128.66,470.81,122,465.75,131.27,442.71,131.27,442.71Z"/><path class="cls-2" d="M174.43,133.75s8.77-1.72,30.9,0l9.32,8.87s-10.48,14-23.46,14S174.43,142.43,174.43,133.75Z"/><path class="cls-2" d="M198.93,159.6l8.55,13.4s-6.13,4.16-10.11-2S198.93,159.6,198.93,159.6Z"/><path class="cls-23" d="M204.49,135.86l3.31-7.29a2.87,2.87,0,0,1,4.27-1.15l6.34,4.52a2.93,2.93,0,0,1,1,3.61,17.1,17.1,0,0,1-7.62,7.9"/><path class="cls-1" d="M215.54,122.63c-5.61-.85-7.69,6.08-6.8,10.51a13.26,13.26,0,0,0,1.8,5.09c3.13,4.35,9.12-2.07,10.11-5.15,1.27-3.93-.25-9.5-4.81-10.4Z"/><path class="cls-2" d="M300.1,74.57s11.21-1.41,32.32-1.43L341.74,82s-10.48,14-23.45,14S300.1,83.25,300.1,74.57Z"/><path class="cls-23" d="M331.58,75.25,334.89,68a2.87,2.87,0,0,1,4.27-1.15l6.34,4.51a2.94,2.94,0,0,1,1,3.61,17.19,17.19,0,0,1-7.63,7.91"/><path class="cls-1" d="M342.63,62c-5.6-.85-7.69,6.08-6.79,10.52a13.08,13.08,0,0,0,1.79,5.09c3.14,4.35,9.12-2.08,10.11-5.15,1.27-3.93-.25-9.51-4.81-10.4Z"/><path class="cls-2" d="M224.32,154.35,207.48,173s7.45,5.58,15.87-2.84S224.32,154.35,224.32,154.35Z"/><polygon class="cls-2" points="165.73 212.26 189.28 214.07 188.98 221.17 165.07 220.31 165.73 212.26"/><path class="cls-9" d="M189.28,236.11V206.47S177.39,217.82,189.28,236.11Z"/><polygon class="cls-22" points="416.8 239.88 386.38 225.58 390.02 216.81 420.44 231.12 416.8 239.88"/><path class="cls-22" d="M379.44,223.9a3.59,3.59,0,1,0-3.59,3.59A3.59,3.59,0,0,0,379.44,223.9Z"/><path class="cls-22" d="M391.14,272.67a3.59,3.59,0,1,0-3.59,3.59A3.6,3.6,0,0,0,391.14,272.67Z"/><path class="cls-24" d="M148.5,337.28s-3.61-13.37,15.24-34c10.34-11.32,31.42-23.78,31.42-23.78"/><line class="cls-17" x1="298.39" y1="165.17" x2="298.39" y2="194.07"/><line class="cls-24" x1="186.45" y1="195.43" x2="185.59" y2="212.26"/><line class="cls-17" x1="339.17" y1="164.94" x2="350.76" y2="177.04"/><line class="cls-17" x1="340.83" y1="163.28" x2="352.28" y2="170.99"/><path class="cls-18" d="M388.69,228.65s-7.22,15.6,6.5,21.42c11.55,4.91,17.94-8.54,17.94-8.54"/><path class="cls-17" d="M321.33,418.45a50.36,50.36,0,0,0,35,0"/><path class="cls-17" d="M388.74,418.45s17.64,8.84,35.42-2.39"/><path class="cls-24" d="M125.19,421.7s17.36,1.43,27.47-8.69"/><path class="cls-24" d="M178.89,421.77s17.69.78,25.54-11.08"/><path class="cls-24" d="M192.17,236.11c17.51,7.18,36.19,2.1,36.19,2.1"/><line class="cls-24" x1="323.41" y1="441.86" x2="331.19" y2="446.83"/><line class="cls-24" x1="317.27" y1="445.71" x2="323.41" y2="450.82"/><line class="cls-24" x1="422.77" y1="442.04" x2="415.28" y2="446.83"/><line class="cls-24" x1="429.01" y1="445.85" x2="423.06" y2="450.82"/><polygon class="cls-12" points="224.6 263.3 219.99 278.06 228.36 265.54 224.6 263.3"/><path class="cls-19" d="M248.89,233.89s4.86-3.27,14.06,0"/><path class="cls-19" d="M185.59,247.05s-8.05.44-10.42,2.82"/><line class="cls-19" x1="232.68" y1="284.88" x2="241.04" y2="277.01"/><path class="cls-19" d="M216.14,125.67s-3.45,1.32-2.57,5.87c1.91,0,3.23,1.46,2.57,3"/><path class="cls-19" d="M343.17,65.69s-3.44,1.32-2.56,5.87c1.9,0,3.22,1.47,2.56,3"/><line class="cls-24" x1="173.72" y1="337.28" x2="183.47" y2="340.32"/><line class="cls-24" x1="174.67" y1="341.75" x2="183.47" y2="342.71"/><line class="cls-24" x1="126.15" y1="335.97" x2="138.28" y2="339.57"/><line class="cls-24" x1="130.2" y1="340.32" x2="137.23" y2="342.23"/></g></svg>