<svg xmlns="http://www.w3.org/2000/svg" xmlns:xlink="http://www.w3.org/1999/xlink" viewBox="0 0 3710 3710"><defs><style>.cls-1{isolation:isolate;}.cls-2{fill:#fff;}.cls-3{fill:#d5faf6;}.cls-4{fill:#cdceec;}.cls-5{fill:url(#linear-gradient);}.cls-6{fill:url(#linear-gradient-2);}.cls-7{fill:url(#linear-gradient-3);}.cls-8{fill:url(#linear-gradient-4);}.cls-9{fill:#91b3fa;}.cls-10,.cls-23{fill:#f4f7fa;}.cls-10,.cls-11{mix-blend-mode:soft-light;}.cls-12{opacity:0.7;}.cls-13{fill:url(#linear-gradient-5);}.cls-14{fill:url(#linear-gradient-6);}.cls-15{fill:url(#linear-gradient-7);}.cls-16{fill:url(#linear-gradient-8);}.cls-17{fill:url(#linear-gradient-9);}.cls-18{fill:url(#linear-gradient-10);}.cls-19{fill:url(#linear-gradient-11);}.cls-20{fill:url(#linear-gradient-12);}.cls-21{fill:url(#linear-gradient-13);}.cls-22{fill:url(#linear-gradient-14);}.cls-24{fill:url(#linear-gradient-15);}.cls-25{fill:url(#linear-gradient-16);}.cls-26{fill:url(#linear-gradient-17);}.cls-27{fill:url(#linear-gradient-18);}.cls-28{fill:url(#linear-gradient-19);}.cls-29{fill:url(#linear-gradient-20);}.cls-30{fill:#e38aff;}.cls-31{fill:url(#linear-gradient-21);}.cls-32{fill:url(#linear-gradient-22);}.cls-33{fill:url(#linear-gradient-23);}.cls-34{fill:url(#linear-gradient-24);}.cls-35{fill:url(#linear-gradient-25);}.cls-36{fill:url(#linear-gradient-26);}.cls-37{fill:url(#linear-gradient-27);}.cls-38{fill:url(#linear-gradient-28);}.cls-39{fill:url(#linear-gradient-29);}.cls-40{fill:url(#linear-gradient-30);}.cls-41{fill:#bdd0fb;}.cls-42{fill:url(#linear-gradient-31);}</style><linearGradient id="linear-gradient" x1="1831.89" y1="2528.14" x2="1865.89" y2="3792.8" gradientUnits="userSpaceOnUse"><stop offset="0" stop-color="#09005d"/><stop offset="1" stop-color="#1a0f91"/></linearGradient><linearGradient id="linear-gradient-2" x1="1834.01" y1="2421.47" x2="1834.01" y2="3114.99" xlink:href="#linear-gradient"/><linearGradient id="linear-gradient-3" x1="2137.41" y1="43.23" x2="1722.65" y2="2586.15" xlink:href="#linear-gradient"/><linearGradient id="linear-gradient-4" x1="-151.28" y1="3429.69" x2="2099.28" y2="1587.09" gradientUnits="userSpaceOnUse"><stop offset="0" stop-color="#ff928e"/><stop offset="1" stop-color="#fe7062"/></linearGradient><linearGradient id="linear-gradient-5" x1="2069.03" y1="2240.54" x2="2660.54" y2="1067.73" gradientUnits="userSpaceOnUse"><stop offset="0" stop-color="#e1473d"/><stop offset="1" stop-color="#e9605a"/></linearGradient><linearGradient id="linear-gradient-6" x1="2001.98" y1="2206.72" x2="2593.49" y2="1033.91" xlink:href="#linear-gradient-5"/><linearGradient id="linear-gradient-7" x1="1792.75" y1="2101.19" x2="2384.25" y2="928.38" xlink:href="#linear-gradient-5"/><linearGradient id="linear-gradient-8" x1="1677.78" y1="2043.21" x2="2269.29" y2="870.4" xlink:href="#linear-gradient-5"/><linearGradient id="linear-gradient-9" x1="1628.78" y1="2018.5" x2="2220.29" y2="845.68" xlink:href="#linear-gradient-5"/><linearGradient id="linear-gradient-10" x1="1443.58" y1="1925.09" x2="2035.09" y2="752.28" xlink:href="#linear-gradient-5"/><linearGradient id="linear-gradient-11" x1="1265.11" y1="1835.08" x2="1856.61" y2="662.26" xlink:href="#linear-gradient-5"/><linearGradient id="linear-gradient-12" x1="1149.08" y1="1776.56" x2="1740.58" y2="603.75" xlink:href="#linear-gradient-5"/><linearGradient id="linear-gradient-13" x1="952.77" y1="1677.55" x2="1544.28" y2="504.74" xlink:href="#linear-gradient-5"/><linearGradient id="linear-gradient-14" x1="784.61" y1="1592.74" x2="1376.12" y2="419.93" xlink:href="#linear-gradient-5"/><linearGradient id="linear-gradient-15" x1="7370.28" y1="3083.92" x2="6698.32" y2="3814.82" gradientTransform="translate(-6061.91)" xlink:href="#linear-gradient"/><linearGradient id="linear-gradient-16" x1="7152.17" y1="3138.2" x2="7211.85" y2="3138.2" gradientTransform="translate(-6061.91)" gradientUnits="userSpaceOnUse"><stop offset="0" stop-color="#febbba"/><stop offset="1" stop-color="#ff928e"/></linearGradient><linearGradient id="linear-gradient-17" x1="7423.19" y1="2257.34" x2="6851.41" y2="3032.31" gradientTransform="translate(-6061.91)" xlink:href="#linear-gradient"/><linearGradient id="linear-gradient-18" x1="7219.53" y1="2945.33" x2="6547.58" y2="3676.23" gradientTransform="translate(-6061.91)" xlink:href="#linear-gradient"/><linearGradient id="linear-gradient-19" x1="6937.06" y1="3135.14" x2="6988.59" y2="3135.14" xlink:href="#linear-gradient-16"/><linearGradient id="linear-gradient-20" x1="7321.28" y1="2182.16" x2="6749.51" y2="2957.12" gradientTransform="translate(-6061.91)" xlink:href="#linear-gradient"/><linearGradient id="linear-gradient-21" x1="1392.7" y1="1718.87" x2="1804.06" y2="974.35" gradientTransform="matrix(1, 0, 0, 1, 0, 0)" xlink:href="#linear-gradient-16"/><linearGradient id="linear-gradient-22" x1="-2770.41" y1="1257.28" x2="-2665.1" y2="1558.17" gradientTransform="matrix(-1, 0, 0, 1, -1086.62, 0)" xlink:href="#linear-gradient-16"/><linearGradient id="linear-gradient-23" x1="-2689.51" y1="1449.52" x2="-2768.84" y2="1289.5" gradientTransform="matrix(-1, 0, 0, 1, -1086.62, 0)" xlink:href="#linear-gradient-16"/><linearGradient id="linear-gradient-24" x1="6730.53" y1="2012.98" x2="7116.42" y2="2012.98" xlink:href="#linear-gradient-16"/><linearGradient id="linear-gradient-25" x1="7233.17" y1="1738.62" x2="7445.35" y2="2622.73" gradientTransform="translate(-6061.91)" xlink:href="#linear-gradient"/><linearGradient id="linear-gradient-26" x1="7087.77" y1="1972.52" x2="7207.99" y2="1972.52" xlink:href="#linear-gradient-16"/><linearGradient id="linear-gradient-27" x1="839.5" y1="1923.18" x2="1121.67" y2="1484.63" gradientTransform="matrix(1, 0, 0, 1, 0, 0)" xlink:href="#linear-gradient-16"/><linearGradient id="linear-gradient-28" x1="3566.78" y1="5953.88" x2="3373.07" y2="6210.15" gradientTransform="translate(-5259.36 -1428.5) rotate(-35.22)" xlink:href="#linear-gradient-16"/><linearGradient id="linear-gradient-29" x1="3418.84" y1="6015.7" x2="3650.23" y2="6015.7" gradientTransform="translate(-5259.36 -1428.5) rotate(-35.22)" xlink:href="#linear-gradient"/><linearGradient id="linear-gradient-30" x1="1027.76" y1="1475.51" x2="1333.73" y2="1186.54" gradientTransform="matrix(1, 0, 0, 1, 0, 0)" xlink:href="#linear-gradient-16"/><linearGradient id="linear-gradient-31" x1="2351.48" y1="2999.22" x2="2803" y2="2999.22" gradientUnits="userSpaceOnUse"><stop offset="0" stop-color="#dae3fe"/><stop offset="1" stop-color="#e9effd"/></linearGradient></defs><g class="cls-1"><g id="Background"><rect class="cls-2" width="3710" height="3710"/><path class="cls-3" d="M1683.69,1808s78.91-122.93,42.55-201.55-123.15-79.07-153.15-46.21c-18.34,20.08-13,53.63-56.41,66.6-26.56,7.94-45.89-4.79-85.48-18.59s-85.55,16.2-91.2,64.12c-6.34,53.77,42.61,81.89,69.48,101.24s13.26,51.47,24.4,81.54S1624.7,1917.12,1683.69,1808Z"/><path class="cls-2" d="M1722.73,1672.35s6-69.49-39-104c-38.74-29.71-77.46-15.3-89.65-2.25s1.15,28.81,34.82,26.56S1713.58,1613.63,1722.73,1672.35Z"/></g><g id="Illustration"><path class="cls-4" d="M2777.75,540.37s941.7,804.69,839.1,1532-806,943.52-1130.07,750.28c-198.05-118.1-236.83-403.51-621-402.51-235,.61-360.8,151.3-648.37,360.33s-734.2,78-897.42-297.09c-183.19-421,145.31-769.15,316-992.12s-18.41-450.28-1.63-721.66S2031.51-201,2777.75,540.37Z"/><path class="cls-2" d="M3426.93,1545.81s218.94,549.36-62.11,940.1c-241.71,336-591.35,314-722.27,237.87s-61.24-236.65,217.58-300.86S3496.47,2044.87,3426.93,1545.81Z"/><polygon class="cls-5" points="1562.31 2495.03 1503.38 3023.51 2187.03 3023.51 2097.99 2495.03 1562.31 2495.03"/><path class="cls-6" d="M2334.29,3131.64H1333.72c-27.18,0-47.6-19.35-42.34-40.14l12.84-50.78c3.86-15.27,20.66-26.48,40.61-27.1l964.59-30.1c20.85-.65,39.31,10.42,43.85,26.29l23.14,80.87C2382.43,3111.69,2361.92,3131.64,2334.29,3131.64Z"/><path class="cls-7" d="M543.93,1144.22v1356a205.7,205.7,0,0,0,200.4,205.64c495.26,12.77,1770.85,43.74,2242.31,36.79a151.36,151.36,0,0,0,149-147c9.09-315,23.85-1072.48-30.79-1424.15a155.75,155.75,0,0,0-148.92-131.84c-415-13.27-1794.61-55.42-2265.84-44.84A149.52,149.52,0,0,0,543.93,1144.22Z"/><path class="cls-8" d="M629,1137.62V2425.87A119.18,119.18,0,0,0,746.41,2545l2172.4,32.48A116,116,0,0,0,3036.53,2462l4.4-1276.73a84.83,84.83,0,0,0-82.76-85.12l-2235-54.38A91.91,91.91,0,0,0,629,1137.62Z"/><path class="cls-9" d="M3056.33,2630.24h-.08L629,2581.1a3.58,3.58,0,0,1,.14-7.15l2427.3,49.14a3.58,3.58,0,0,1-.06,7.15Z"/><path class="cls-9" d="M1872.35,3027.69a3.58,3.58,0,0,1,0-7.15l41.33-.6h0a3.57,3.57,0,0,1,0,7.14l-41.33.61Z"/><path class="cls-9" d="M1328.42,3104a3.64,3.64,0,0,1-.56-.05,3.57,3.57,0,0,1-3-4.09l5.9-36.93a41.49,41.49,0,0,1,40.45-35l438.41-6.41a3.57,3.57,0,1,1,.1,7.14L1371.34,3035a34.39,34.39,0,0,0-33.5,29L1332,3101A3.58,3.58,0,0,1,1328.42,3104Z"/><path class="cls-10" d="M789.41,2426l490.65,7.61a50.84,50.84,0,0,0,51.62-49.54l5.8-226.84a50.85,50.85,0,0,0-50.77-52.14l-490.83-.63A50.85,50.85,0,0,0,745,2154l-5.61,219.85A50.85,50.85,0,0,0,789.41,2426Z"/><g class="cls-11"><g class="cls-12"><polygon class="cls-13" points="2338.13 1931.16 2428.13 1932.21 2444.93 1274.43 2355.02 1269.82 2338.13 1931.16"/><polygon class="cls-14" points="2175.71 1929.25 2267.46 1930.33 2275.93 1598.27 2184.24 1595.38 2175.71 1929.25"/><polygon class="cls-15" points="2010.11 1927.31 2103.66 1928.41 2122.4 1194.3 2028.96 1189.16 2010.11 1927.31"/><polygon class="cls-16" points="1841.25 1925.33 1936.64 1926.45 1952.76 1295.09 1857.46 1290.47 1841.25 1925.33"/><polygon class="cls-17" points="1669.02 1923.31 1766.32 1924.45 1770.68 1753.48 1673.41 1751.38 1669.02 1923.31"/><polygon class="cls-18" points="1493.31 1921.24 1592.58 1922.41 1602.94 1516.54 1503.74 1513.07 1493.31 1921.24"/><polygon class="cls-19" points="1314.04 1919.14 1415.33 1920.33 1430.41 1329.45 1329.21 1324.88 1314.04 1919.14"/><polygon class="cls-20" points="1131.08 1916.99 1234.45 1918.21 1245.57 1482.9 1142.26 1479.17 1131.08 1916.99"/><polygon class="cls-21" points="944.31 1914.8 1049.84 1916.04 1067.26 1233.84 961.84 1228.62 944.31 1914.8"/><polygon class="cls-22" points="753.63 1912.57 861.38 1913.83 880.94 1147.64 773.31 1141.85 753.63 1912.57"/></g></g><path class="cls-10" d="M2536.67,1803.21l397.77,7.79a22.44,22.44,0,0,0,22.87-21.85h0a22.44,22.44,0,0,0-21.93-23l-397.74-8.9a22.44,22.44,0,0,0-22.93,21.86l0,1.1A22.43,22.43,0,0,0,2536.67,1803.21Z"/><path class="cls-10" d="M2538.57,1724.54l397.73,9.68a22.44,22.44,0,0,0,23-21.85h0a22.45,22.45,0,0,0-21.82-23l-397.69-10.78a22.43,22.43,0,0,0-23,21.85l0,1.1A22.44,22.44,0,0,0,2538.57,1724.54Z"/><path class="cls-10" d="M2536.59,2416l397.72,9.68a22.43,22.43,0,0,0,23-21.85h0a22.42,22.42,0,0,0-21.81-23L2537.77,2370a22.42,22.42,0,0,0-23,21.85l0,1.1A22.43,22.43,0,0,0,2536.59,2416Z"/><path class="cls-10" d="M2517.77,2278.79a35.23,35.23,0,0,0,35.21,36.28l371.66,0a31.53,31.53,0,0,0,32.93-30.69l9.58-375.43a31.53,31.53,0,0,0-30.68-32.32l-375-9.92a31.53,31.53,0,0,0-32.35,30.71Z"/><g class="cls-11"><path class="cls-23" d="M905.69,2234c37.58,2.37,43.72-19.26,80.81-20.43,62.91-2,76.74,59.56,137.29,60.17,49.44.5,62.92-40.46,111.72-34.64,36.28,4.33,42.82,28.72,78.18,33.1a85.54,85.54,0,0,0,20.85,0l-2.73,107a55.85,55.85,0,0,1-56.69,54.41l-479.46-7.44a57,57,0,0,1-56.13-58.49l5-196.32c31.69,3.1,54.68,10.87,71.09,18.57C855.1,2208.41,867.77,2231.57,905.69,2234Z"/></g><path class="cls-10" d="M2581.61,1629.23h319.85a61.48,61.48,0,0,0,61.46-59.92l6.52-255.28a61.48,61.48,0,0,0-61.47-63H2588.13a61.48,61.48,0,0,0-61.46,59.91l-6.52,255.28A61.49,61.49,0,0,0,2581.61,1629.23Z"/><path class="cls-10" d="M785.59,2069.38l1604.51,5.13a35.17,35.17,0,0,0,35.27-34.26h0a35.16,35.16,0,0,0-34.89-36.06L786.13,1992.31a35.16,35.16,0,0,0-35.41,34.26l-.17,6.75A35.16,35.16,0,0,0,785.59,2069.38Z"/><path class="cls-10" d="M1453.9,2416l909.53,27a51.43,51.43,0,0,0,52.93-50.09l6-236a51.42,51.42,0,0,0-51.19-52.74l-910.13-3.82a51.43,51.43,0,0,0-51.62,50.12L1404,2363.29A51.43,51.43,0,0,0,1453.9,2416Z"/><path class="cls-24" d="M1096,3138.36s-7,39.4-10.37,78.4a26.88,26.88,0,0,0,25.71,29.11c51.93,2.16,163,6.37,202.88,4.59a8.74,8.74,0,0,0,7.69-12,19.56,19.56,0,0,0-10-10.54l-183.49-84.34Z"/><path class="cls-25" d="M1090.26,3115.22l5.59,47.12s32.15,15,54.1-1.89l-13.31-52.51Z"/><path class="cls-26" d="M1094.47,2229.3c-2.42,12.3-13,614.08,51.36,883.76a9.16,9.16,0,0,1-5.37,10.65c-9.87,4-29.21,9.87-52.39,10.65a15.78,15.78,0,0,1-15.64-11.32c-18.39-62.57-106.49-376.06-118-675.53-12.84-334.63,0-11.39,0-11.39L962,2229.27Z"/><path class="cls-27" d="M884.88,3158.92s-11.07,19.88-21.8,72.73a16.38,16.38,0,0,0,14.43,19.63c17.14,1.69,43.54,3.86,64.69,3.71a16.33,16.33,0,0,0,16.18-18.23c-2.34-19.29-9.64-50.94-32.18-75.61Z"/><path class="cls-28" d="M875.15,3098.31l13.07,71.26s12.92,9.61,38.47,2.64l-6.24-76.67Z"/><path class="cls-29" d="M839.86,2247.76c-52.61,317.51,11.41,784.74,33,876.19a14.26,14.26,0,0,0,11.51,10.83c9.64,1.6,25.51,2.9,41.15-1.64a13.08,13.08,0,0,0,9.4-12c2.89-73.93-2.32-527.81,46.7-707.19a40.74,40.74,0,0,1,15.72-22.48l95.14-67.64,7.3-109.33Z"/><path class="cls-30" d="M1175.09,1646.15c-157.66-2.6-331.62,41.4-331.62,41.4-47,274.22-8.22,590.51-8.22,590.51,122.06,32,259.75-19.57,259.75-19.57,20.29-114.62,114.94-437.19,114.94-437.19,77-9.56,140.49-31.78,192.75-61.17-39.86-46.2-58.66-105-66.82-139.75C1280.13,1637.7,1223.72,1647,1175.09,1646.15Z"/><path class="cls-31" d="M1640.8,1413.92c-15.49-18.7-35.09-9.85-35.09-9.85-23.2,98-144.85,177.47-269.84,216.31,8.16,34.75,27,93.55,66.82,139.75C1610.11,1643.51,1640.8,1413.92,1640.8,1413.92Z"/><path class="cls-32" d="M1637,1418.68c1.62,5.15-17.14,13-28.19-8.07-.39-10.1-6.53-53.37-.5-61.59,32.14-43.82,94.45-98.74,94.45-98.74,10.53,10.39,1.86,20.6,1.86,20.6l-30.23,31.48c6.32,11.43,14,21.07,17.65,34.89a42.39,42.39,0,0,1-4.23,31.18c-5.3,9.56-12.54,22-19.39,31.71C1655.51,1418.54,1637,1418.68,1637,1418.68Z"/><path class="cls-33" d="M1661.21,1322.8l-27.55,23.35L1625,1369.4l24.56,27.24s8.26-46.13,14.4-56.11S1666.92,1325.72,1661.21,1322.8Z"/><path class="cls-30" d="M903.94,1840.21l-60.47-152.66S696.2,1787.61,672,1914.48c27.83,2,78.46,9.28,128,34.31C810.9,1888.88,903.94,1840.21,903.94,1840.21Z"/><path class="cls-34" d="M1032.64,1983.86s-165.35,93.45-221.14,13.66c-11.58-16.57-14.35-33-11.49-48.73-49.57-25-100.2-32.27-128-34.31-7.3,38.24-3.44,78.92,19,120,97.72,178.76,363.5-9.88,363.5-9.88Z"/><path class="cls-35" d="M1012.77,2102.08,1103,1787a9.17,9.17,0,0,1,7.77-6.62c16.35-1.9,63.72-7.26,118.42-11.89,65.89-5.57,142.4-10.09,188.12-6.24a9.22,9.22,0,0,1,7.54,13.27c-26,52.6-132.95,266.57-186.51,336.66a9.24,9.24,0,0,1-7.44,3.66l-209.36-1.95A9.22,9.22,0,0,1,1012.77,2102.08Z"/><path class="cls-36" d="M1034.57,2025.94s-12.57-51.68-7.5-70,14.9-41.92,47.64-36.68,71.38,19,71.38,19-2,23.88-26.84,16.18l15.43,11.94s-2.21,19.12-23.23,8.91l14.36,15.83s-9,15.71-24.5,5.64S1078.43,2032.17,1034.57,2025.94Z"/><path class="cls-37" d="M1015.39,1518.15l-50.16,145.08a5.24,5.24,0,0,0,2.38,6.3c13.68,7.56,62.94,29.41,122.31-8.23a24.61,24.61,0,0,0,11.34-17.58l16.24-125.57Z"/><path class="cls-38" d="M1118.71,1356c1.48,2.09,46.53,164.83,46.53,164.83l-93.47,23.75-65.62-147.9S1094.06,1321.09,1118.71,1356Z"/><path class="cls-39" d="M1041.35,1419.17l28.44,80.56a12.18,12.18,0,0,0,1.49,2.89c3.86,5.48,18.52,23.37,35.91,7.26,15.78-14.63,30.4-27.74,43.91-30.12a11.92,11.92,0,0,1,13.57,8.56c4.09,14.79,12.69,48.28,15.72,78.52a11.9,11.9,0,0,1-9.68,12.83c-18.26,3.47-57,9.7-89.28,7.42a11.92,11.92,0,0,1-10.06-6.92c-8.9-19.46-36.19-78.5-46.33-93.78-9.53-14.34-32.88-13.94-42.67-13.07a11.71,11.71,0,0,1-8.79-2.87c-8.57-7.51-24.87-26.69-1.94-49.64a12,12,0,0,0-.27-17.2c-9.85-9.26-20.39-25.69-4-46.06,16.68-20.7,38.7-17.41,52.19-12.49a12,12,0,0,0,14.37-5.3c1.69-2.85,4.63-5,9.74-4.56a11.76,11.76,0,0,0,12.54-12c-.24-13.27,4.51-30,27.52-37.19,40.83-12.7,66.29,26.74,68.82,56.18s-42.53,40.69-69,38.71c-20.14-1.51-35.09,18.45-41.1,28.11A11.82,11.82,0,0,0,1041.35,1419.17Z"/><path class="cls-40" d="M1035.68,1515.62s-6.59-51.1-27.85-53.61-42,15-20.81,43.65C1013.31,1541.34,1035.68,1515.62,1035.68,1515.62Z"/><path class="cls-9" d="M2186,3200.07c340.11-168.84,602.5-434.43,631.77-990.19C2817.76,2209.88,1932.52,2505.43,2186,3200.07Z"/><path class="cls-41" d="M2241,3075.39a4.5,4.5,0,0,0,4.25-3c154.59-440.7,454.33-695.69,457.34-698.21a4.51,4.51,0,0,0-5.79-6.91c-3,2.54-304.61,259-460.06,702.13a4.52,4.52,0,0,0,2.76,5.75A4.39,4.39,0,0,0,2241,3075.39Z"/><path class="cls-41" d="M2220.35,3186.33c239.05,22.06,468.4-33.74,668.65-323.06C2889,2863.27,2314.57,2728.43,2220.35,3186.33Z"/><path class="cls-42" d="M2356,3109.93a4.51,4.51,0,0,0,3.45-1.6c134.92-159,436.75-210.35,439.79-210.85a4.52,4.52,0,0,0,3.72-5.18,4.46,4.46,0,0,0-5.19-3.72c-3.06.5-308.16,52.39-445.2,213.92a4.51,4.51,0,0,0,3.43,7.43Z"/></g></g></svg>